<svg width="120" height="22" viewBox="0 0 120 22" fill="none" xmlns="http://www.w3.org/2000/svg">
<g clip-path="url(#clip0_1_43259)">
<path d="M1.39497 4.83701C0.625093 4.83701 0 4.21192 0 3.44184C0 2.67207 0.625093 2.04688 1.39497 2.04688H17.8719C18.6417 2.04688 19.2669 2.67207 19.2669 3.44184C19.2669 4.21192 18.6418 4.83701 17.8719 4.83701H1.39497ZM16.9183 16.1608C17.4773 15.6347 18.3583 15.6609 18.8844 16.2201C19.4105 16.7793 19.3843 17.6601 18.8251 18.1862C17.5367 19.3957 16.0803 20.359 14.5106 21.0137C12.9749 21.6531 11.3327 22 9.63355 22C7.93409 22 6.29197 21.6531 4.75622 21.0137C3.18649 20.359 1.73019 19.3957 0.4417 18.1862C-0.117527 17.6601 -0.143726 16.7793 0.382358 16.2201C0.908442 15.6609 1.78953 15.6347 2.34844 16.1608C3.39324 17.1417 4.5662 17.9193 5.82396 18.4433C7.01702 18.94 8.29887 19.2102 9.63355 19.2102C10.9679 19.2102 12.2498 18.94 13.4428 18.4433C14.7006 17.9194 15.8736 17.1417 16.9183 16.1608ZM17.2831 9.04842C17.9771 8.7233 18.8054 9.02422 19.1305 9.71855C19.4556 10.4126 19.1547 11.2408 18.4607 11.5659C17.194 12.1603 15.7761 12.6316 14.2589 12.9468C12.7927 13.2523 11.234 13.4181 9.63355 13.4181C8.03289 13.4181 6.4742 13.2523 5.0079 12.9468C3.49099 12.6315 2.07161 12.1591 0.806172 11.5659C0.112161 11.2408 -0.188759 10.4126 0.136256 9.71855C0.461376 9.02422 1.28964 8.7233 1.98397 9.04842C3.05139 9.54947 4.26318 9.95034 5.5746 10.2226C6.83562 10.4852 8.20218 10.628 9.63355 10.628C11.0646 10.628 12.4312 10.4852 13.6922 10.2226C15.0036 9.95024 16.2162 9.5482 17.2831 9.04842Z" fill="#FB4247"/>
<path d="M38.3895 8.78498C37.8004 8.42766 37.1532 8.14231 36.4478 7.92809C35.7428 7.71397 35.0684 7.60655 34.4257 7.60655C33.6759 7.60655 33.0731 7.7447 32.6179 8.02173C32.1626 8.29856 31.935 8.72269 31.935 9.2938C31.935 9.86524 32.1894 10.2983 32.6982 10.5927C33.207 10.8876 33.9795 11.1866 35.0148 11.4902C35.997 11.7759 36.8004 12.0616 37.4253 12.3471C38.0504 12.6328 38.5816 13.0522 39.0189 13.606C39.4564 14.1596 39.675 14.8914 39.675 15.802C39.675 17.1411 39.1707 18.1591 38.162 18.8552C37.1533 19.5516 35.8986 19.9 34.3989 19.9C33.3455 19.9 32.3231 19.7303 31.3323 19.3908C30.3415 19.0517 29.5067 18.5697 28.8281 17.9446L29.7655 16.1234C30.3545 16.6591 31.0823 17.0877 31.9484 17.4089C32.8143 17.7304 33.658 17.8912 34.4791 17.8912C35.3008 17.8912 35.9611 17.7393 36.461 17.4357C36.9612 17.1321 37.2111 16.668 37.2111 16.0431C37.2111 15.4001 36.9477 14.9182 36.421 14.5966C35.8943 14.2754 35.0949 13.9539 34.0239 13.6327C33.0776 13.3645 32.3054 13.0923 31.7071 12.8158C31.1091 12.539 30.6 12.1329 30.1806 11.5972C29.761 11.0616 29.551 10.3654 29.551 9.50792C29.551 8.18661 30.0333 7.19589 30.9972 6.53523C31.9614 5.87457 33.1666 5.54419 34.6128 5.54419C35.47 5.54419 36.3138 5.66466 37.1438 5.90561C37.9742 6.14656 38.6929 6.47294 39.2999 6.88329L38.3895 8.78498ZM55.2095 8.70448C55.6736 7.68683 56.3342 6.91464 57.191 6.38761C58.0482 5.86121 59.0662 5.58891 60.2442 5.57102V7.98154C58.798 7.92819 57.6285 8.30277 56.7358 9.10631C55.8432 9.90985 55.3344 10.9901 55.2094 12.3471V19.8195H52.7184V5.6513H55.2094V8.70448H55.2095ZM100.473 5.6513H102.963V19.8195H100.473V5.6513ZM101.704 0C102.151 0 102.521 0.152144 102.816 0.455694C103.11 0.759034 103.258 1.14287 103.258 1.60698C103.258 2.0714 103.11 2.45555 102.816 2.75879C102.521 3.06244 102.151 3.21395 101.704 3.21395C101.258 3.21395 100.887 3.06244 100.593 2.75879C100.298 2.45545 100.151 2.0713 100.151 1.60698C100.151 1.14287 100.298 0.759034 100.593 0.455694C100.887 0.152144 101.258 0 101.704 0ZM117.747 9.42775C116.622 8.33854 115.275 7.79425 113.703 7.79425C112.775 7.79425 111.949 7.99943 111.226 8.41019C110.503 8.82096 109.936 9.40134 109.525 10.1508C109.114 10.9009 108.909 11.7667 108.909 12.7489C108.909 13.7307 109.11 14.5968 109.512 15.347C109.913 16.0968 110.467 16.6817 111.172 17.1011C111.877 17.521 112.685 17.7307 113.596 17.7307C114.507 17.7307 115.328 17.5789 116.06 17.2756C116.792 16.9717 117.399 16.5344 117.881 15.9629L119.301 17.4091C118.658 18.2125 117.841 18.8285 116.85 19.257C115.859 19.6859 114.739 19.9 113.489 19.9C112.114 19.9 110.891 19.5961 109.82 18.9891C108.748 18.3822 107.913 17.5384 107.315 16.4581C106.717 15.3779 106.418 14.1416 106.418 12.7487C106.418 11.3558 106.717 10.1151 107.315 9.02592C107.914 7.93672 108.748 7.08877 109.82 6.48157C110.891 5.87457 112.114 5.57102 113.489 5.57102C114.685 5.57102 115.761 5.7542 116.716 6.12015C117.671 6.48609 118.47 7.01733 119.113 7.71397L117.747 9.42775ZM49.6918 18.8824C48.6029 19.5785 47.5137 19.9269 46.4245 19.9269C45.2816 19.9269 44.3576 19.5338 43.6525 18.7482C42.9472 17.9625 42.5944 16.8289 42.5944 15.3469V2.33024H45.0854V6.13351H49.4509V8.0352H45.0854V14.8914C45.0854 16.7129 45.6747 17.6232 46.8528 17.6232C47.5137 17.6232 48.237 17.4004 49.0223 16.9539L49.6918 18.8824ZM76.1268 5.6513V19.8195H73.6358V17.0609C73.1001 17.9891 72.3861 18.7035 71.4931 19.2035C70.6005 19.7034 69.556 19.9533 68.3594 19.9533C67.0205 19.9533 65.8376 19.6456 64.8107 19.0294C63.7841 18.4135 62.9854 17.5567 62.4137 16.4581C61.8425 15.3603 61.5568 14.1058 61.5568 12.6954C61.5568 11.3025 61.8425 10.066 62.4137 8.98573C62.9854 7.90547 63.789 7.06194 64.8242 6.45474C65.8597 5.84774 67.0384 5.54419 68.3594 5.54419C69.556 5.54419 70.6005 5.78998 71.4931 6.28081C72.3861 6.77176 73.1001 7.48155 73.6358 8.41009V5.6513H76.1268ZM68.8685 17.8107C70.1897 17.8107 71.2834 17.3958 72.1496 16.5656C73.0151 15.7352 73.5108 14.6504 73.6358 13.3113V12.24C73.5108 10.9008 73.0151 9.81189 72.1496 8.97258C71.2834 8.13337 70.1897 7.71397 68.8685 7.71397C67.9401 7.71397 67.1141 7.9323 66.391 8.36989C65.668 8.80739 65.101 9.41017 64.6903 10.1779C64.28 10.9456 64.0745 11.8117 64.0745 12.7757C64.0745 13.74 64.28 14.6058 64.6903 15.3735C65.101 16.1412 65.668 16.7396 66.391 17.1681C67.1142 17.5966 67.9401 17.8107 68.8685 17.8107ZM87.697 18.8824C86.6077 19.5785 85.5185 19.9269 84.4297 19.9269C83.2868 19.9269 82.3628 19.5338 81.6574 18.7482C80.952 17.9625 80.5996 16.8289 80.5996 15.3469V2.33024H83.0902V6.13351H87.4557V8.0352H83.0902V14.8914C83.0902 16.7129 83.6796 17.6232 84.858 17.6232C85.5187 17.6232 86.2419 17.4004 87.0271 16.9539L87.697 18.8824ZM97.4459 18.8824C96.3567 19.5785 95.2675 19.9269 94.1786 19.9269C93.0358 19.9269 92.1118 19.5338 91.4064 18.7482C90.701 17.9625 90.3485 16.8289 90.3485 15.3469V2.33024H92.8392V6.13351H97.205V8.0352H92.8392V14.8914C92.8392 16.7129 93.4285 17.6232 94.607 17.6232C95.2676 17.6232 95.9909 17.4004 96.7761 16.9539L97.4459 18.8824Z" fill="black"/>
</g>
<defs>
<clipPath id="clip0_1_43259">
<rect width="119.301" height="22" fill="white"/>
</clipPath>
</defs>
</svg>
