<svg width="37" height="27" viewBox="0 0 37 27" fill="none" xmlns="http://www.w3.org/2000/svg">
<path d="M1.52862 3.54428C0.688756 3.54428 0.00683594 2.86236 0.00683594 2.02227C0.00683594 1.18252 0.688756 0.500488 1.52862 0.500488H19.5035C20.3432 0.500488 21.0253 1.18252 21.0253 2.02227C21.0253 2.86236 20.3433 3.54428 19.5035 3.54428H1.52862ZM18.4632 15.8975C19.0729 15.3235 20.0341 15.3521 20.608 15.9622C21.1819 16.5723 21.1534 17.5331 20.5433 18.107C19.1378 19.4264 17.549 20.4774 15.8365 21.1915C14.1613 21.8891 12.3698 22.2675 10.5162 22.2675C8.6622 22.2675 6.8708 21.8891 5.19544 21.1915C3.48301 20.4774 1.89431 19.4264 0.488691 18.107C-0.121376 17.5331 -0.149956 16.5723 0.423954 15.9622C0.997864 15.3521 1.95905 15.3235 2.56877 15.8975C3.70856 16.9676 4.98815 17.8158 6.36025 18.3875C7.66176 18.9293 9.06015 19.2241 10.5162 19.2241C11.9718 19.2241 13.3702 18.9293 14.6717 18.3875C16.0438 17.8159 17.3235 16.9676 18.4632 15.8975ZM18.8612 8.13854C19.6183 7.78386 20.5218 8.11214 20.8765 8.86959C21.2312 9.62669 20.9029 10.5303 20.1458 10.8849C18.7639 11.5333 17.2171 12.0474 15.562 12.3913C13.9625 12.7245 12.2621 12.9054 10.5162 12.9054C8.76999 12.9054 7.0696 12.7245 5.47 12.3913C3.81519 12.0473 2.26678 11.532 0.886296 10.8849C0.129194 10.5303 -0.199083 9.62669 0.155479 8.86959C0.510155 8.11214 1.41372 7.78386 2.17117 8.13854C3.33563 8.68513 4.65757 9.12245 6.08822 9.41951C7.46388 9.70589 8.95467 9.86176 10.5162 9.86176C12.0773 9.86176 13.5681 9.70589 14.9438 9.41951C16.3744 9.12234 17.6973 8.68375 18.8612 8.13854Z" fill="#FB4247"/>
</svg>
